HIERARCHY
ROOT Hips
{
 OFFSET 0.000000 0.000000 0.000000
 CHANNELS 6 Xposition Yposition Zposition Yrotation Xrotation Zrotation
 JOINT Chest
 {
  OFFSET 0.000000 9.585900 0.002600
  CHANNELS 3 Yrotation Xrotation Zrotation
  JOINT Chest2
  {
   OFFSET 0.000000 9.601200 -0.005300
   CHANNELS 3 Yrotation Xrotation Zrotation
   JOINT Chest3
   {
    OFFSET 0.000000 9.561800 0.000000
    CHANNELS 3 Yrotation Xrotation Zrotation
    JOINT Chest4
    {
     OFFSET 0.000000 9.552100 0.000000
     CHANNELS 3 Yrotation Xrotation Zrotation
     JOINT Neck
     {
      OFFSET 0.000000 14.453000 0.000000
      CHANNELS 3 Yrotation Xrotation Zrotation
      JOINT Head
      {
       OFFSET 0.000000 8.936500 -0.011300
       CHANNELS 3 Yrotation Xrotation Zrotation
       End Site
       {
        OFFSET 0.000000 17.073600 -0.006000
       }
      }
     }
     JOINT RightCollar
     {
      OFFSET -2.921100 9.558500 0.000000
      CHANNELS 3 Yrotation Xrotation Zrotation
      JOINT RightShoulder
      {
       OFFSET -13.519700 0.000000 0.000000
       CHANNELS 3 Yrotation Xrotation Zrotation
       JOINT RightElbow
       {
        OFFSET 0.000000 -29.696600 0.000000
        CHANNELS 3 Yrotation Xrotation Zrotation
        JOINT RightWrist
        {
         OFFSET 0.000000 -24.004700 0.000000
         CHANNELS 3 Yrotation Xrotation Zrotation
         End Site
         {
          OFFSET 0.000000 -17.728500 0.000000
         }
        }
       }
      }
     }
     JOINT LeftCollar
     {
      OFFSET 2.921100 9.558500 0.000000
      CHANNELS 3 Yrotation Xrotation Zrotation
      JOINT LeftShoulder
      {
       OFFSET 13.519700 0.000000 0.000000
       CHANNELS 3 Yrotation Xrotation Zrotation
       JOINT LeftElbow
       {
        OFFSET 0.000000 -29.696600 0.000000
        CHANNELS 3 Yrotation Xrotation Zrotation
        JOINT LeftWrist
        {
         OFFSET 0.000000 -24.004700 0.000000
         CHANNELS 3 Yrotation Xrotation Zrotation
         End Site
         {
          OFFSET 0.000000 -17.728500 0.000000
         }
        }
       }
      }
     }
    }
   }
  }
 }
 JOINT RightHip
 {
  OFFSET -7.771700 -0.012900 -0.001300
  CHANNELS 3 Yrotation Xrotation Zrotation
  JOINT RightKnee
  {
   OFFSET 0.000000 -40.869800 0.001200
   CHANNELS 3 Yrotation Xrotation Zrotation
   JOINT RightAnkle
   {
    OFFSET 0.000000 -39.717900 0.002100
    CHANNELS 3 Yrotation Xrotation Zrotation
    JOINT RightToe
    {
     OFFSET 0.000000 -4.965400 11.033500
     CHANNELS 3 Yrotation Xrotation Zrotation
     End Site
     {
      OFFSET 0.000000 -1.423100 5.872300
     }
    }
   }
  }
 }
 JOINT LeftHip
 {
  OFFSET 7.771700 -0.012900 -0.001300
  CHANNELS 3 Yrotation Xrotation Zrotation
  JOINT LeftKnee
  {
   OFFSET 0.000000 -40.869800 0.001200
   CHANNELS 3 Yrotation Xrotation Zrotation
   JOINT LeftAnkle
   {
    OFFSET 0.000000 -39.717900 0.002100
    CHANNELS 3 Yrotation Xrotation Zrotation
    JOINT LeftToe
    {
     OFFSET 0.000000 -4.965400 11.033500
     CHANNELS 3 Yrotation Xrotation Zrotation
     End Site
     {
      OFFSET 0.000000 -1.423100 5.872300
     }
    }
   }
  }
 }
}
MOTION
Frames: 13
Frame Time: 0.008333
-81.243902 46.515139 -11.245179 175.613509 -29.683455 -3.044291 1.000848 18.675350 1.733667 0.071373 2.164250 0.198533 0.123278 3.572809 0.332986 0.777561 16.208572 1.644150 -1.248088 16.307200 -1.624955 -1.723872 -5.537538 -2.568806 1.299175 -0.711197 -1.976041 6.610543 -8.173131 -17.142574 -44.104552 -57.017192 92.191844 -1.452142 6.202952 -20.347528 -0.304704 -1.206001 3.013157 -7.541509 -4.319460 12.865048 87.441034 -82.460361 -122.942242 -4.696233 10.121563 8.048569 -2.814745 -57.490485 -5.213681 -172.649149 80.292305 -163.845287 -7.231708 -13.389789 -5.266982 0.000091 -0.168937 0.019969 -1.059836 -59.372358 11.730033 -118.984194 82.932328 -123.090215 6.654938 -6.960376 6.424467 0.066407 0.211224 0.037804
-81.243572 46.513214 -11.244310 175.612797 -29.687498 -3.042248 1.005355 18.671429 1.740075 0.070494 2.167322 0.196285 0.127364 3.567677 0.337314 0.772056 16.212912 1.640483 -1.238790 16.294025 -1.599829 -1.738889 -5.527155 -2.566127 1.307076 -0.720021 -1.969300 6.615922 -8.184378 -17.168247 -44.117664 -57.032634 92.214965 -1.450981 6.214864 -20.344153 -0.284773 -1.216925 3.016559 -7.545617 -4.304646 12.848852 87.428783 -82.455817 -122.935579 -4.679613 10.110797 8.082925 -2.801573 -57.486291 -5.215707 -172.748304 80.298975 -163.945448 -7.243233 -13.400465 -5.268666 -0.009517 -0.155961 0.020599 -1.054441 -59.369372 11.726238 -118.978312 82.932902 -123.086030 6.670380 -6.961684 6.422401 0.069667 0.213097 0.039118
-81.243480 46.512067 -11.244451 175.617648 -29.698278 -3.039315 1.001216 18.679678 1.737291 0.076509 2.150330 0.213403 0.124711 3.576087 0.327580 0.767853 16.218406 1.636793 -1.241165 16.292154 -1.589930 -1.746034 -5.532557 -2.538668 1.324864 -0.746299 -1.965583 6.610522 -8.175025 -17.185143 -44.115418 -57.031570 92.213006 -1.437140 6.222108 -20.332544 -0.278340 -1.220221 3.015854 -7.545810 -4.295842 12.839989 87.396360 -82.446806 -122.900246 -4.683773 10.108339 8.088149 -2.787761 -57.475276 -5.223392 -172.887910 80.306035 -164.085908 -7.268123 -13.409786 -5.269306 -0.010809 -0.148176 0.021427 -1.030197 -59.361493 11.706067 -118.943630 82.926317 -123.043479 6.664881 -6.958283 6.419661 0.070903 0.213276 0.041293
-81.244902 46.511246 -11.245048 175.627927 -29.711085 -3.028195 0.990438 18.684349 1.732112 0.073208 2.149697 0.210288 0.126828 3.578164 0.331300 0.764197 16.220130 1.638287 -1.246700 16.289625 -1.590800 -1.746496 -5.526668 -2.545736 1.334440 -0.752317 -1.973814 6.606910 -8.173264 -17.193475 -44.112231 -57.027333 92.207481 -1.419608 6.226080 -20.317119 -0.274607 -1.220969 3.006950 -7.541708 -4.289115 12.831600 87.370401 -82.440590 -122.875644 -4.688407 10.107466 8.094609 -2.744046 -57.461170 -5.260430 -172.868670 80.305249 -164.061563 -7.281932 -13.421741 -5.273426 -0.001321 -0.140030 0.029626 -1.005731 -59.348611 11.674086 -118.856435 82.919982 -122.962370 6.672496 -6.946307 6.429039 0.067738 0.206528 0.039435
-81.244901 46.510002 -11.244493 175.630429 -29.717396 -3.021115 0.984802 18.680299 1.730507 0.073514 2.151118 0.209533 0.125669 3.570906 0.337888 0.760259 16.231040 1.630613 -1.247008 16.287097 -1.586115 -1.754471 -5.530986 -2.535364 1.343209 -0.756675 -1.975608 6.606769 -8.171855 -17.202373 -44.115786 -57.044105 92.223683 -1.442208 6.229090 -20.329698 -0.272235 -1.217115 3.002181 -7.527878 -4.287617 12.821427 87.325537 -82.439039 -122.835809 -4.675219 10.110174 8.118117 -2.725367 -57.454411 -5.273507 -173.085826 80.317618 -164.276555 -7.319534 -13.428887 -5.281698 -0.008208 -0.132605 0.037682 -0.994448 -59.341276 11.661052 -118.799045 82.915783 -122.908307 6.675523 -6.943638 6.432072 0.068433 0.207651 0.037041
-81.244340 46.509354 -11.244971 175.627999 -29.731211 -3.014079 0.983829 18.683161 1.729121 0.076474 2.154519 0.212034 0.123828 3.574955 0.333860 0.758063 16.225731 1.639168 -1.248461 16.289682 -1.587498 -1.757447 -5.550487 -2.506739 1.346474 -0.752379 -1.985863 6.634105 -8.194027 -17.221729 -44.119434 -57.036693 92.220173 -1.453051 6.237861 -20.328062 -0.271072 -1.215073 2.999376 -7.519271 -4.277196 12.790720 87.306097 -82.446932 -122.806463 -4.666277 10.117442 8.148681 -2.704828 -57.442340 -5.281136 -173.096239 80.318598 -164.287588 -7.324482 -13.429254 -5.291184 -0.011025 -0.132191 0.047383 -0.986346 -59.324914 11.655348 -118.752504 82.913842 -122.864851 6.678997 -6.942383 6.430049 0.045164 0.208650 0.036419
-81.244778 46.508889 -11.246118 175.635640 -29.748131 -3.006155 0.977794 18.692857 1.727386 0.074238 2.157226 0.208717 0.122933 3.577425 0.332599 0.755020 16.226988 1.637898 -1.247840 16.287411 -1.582529 -1.760490 -5.553329 -2.494251 1.347979 -0.755530 -1.986951 6.647904 -8.199971 -17.234264 -44.124578 -57.022871 92.215728 -1.433220 6.228190 -20.306946 -0.275193 -1.215763 3.002323 -7.515510 -4.270283 12.769356 87.321595 -82.451643 -122.804058 -4.669506 10.121932 8.149668 -2.680987 -57.428524 -5.300686 -173.087100 80.314876 -164.281117 -7.330233 -13.423915 -5.297746 -0.003968 -0.140262 0.053210 -0.977125 -59.304941 11.637622 -118.720673 82.913264 -122.836272 6.678989 -6.941897 6.427875 0.058770 0.213074 0.034386
-81.245001 46.507371 -11.245659 175.637637 -29.754206 -2.998381 0.975415 18.691988 1.726039 0.072358 2.162721 0.203341 0.121825 3.567844 0.342772 0.751671 16.236509 1.628221 -1.248033 16.288063 -1.582731 -1.768102 -5.553659 -2.473688 1.352525 -0.762109 -1.983771 6.658543 -8.198373 -17.246721 -44.127771 -57.021889 92.208189 -1.440627 6.221507 -20.302520 -0.277182 -1.218694 3.005631 -7.517473 -4.259677 12.743823 87.361998 -82.462991 -122.831334 -4.668055 10.129379 8.163998 -2.667799 -57.426037 -5.312227 -173.081311 80.313526 -164.277502 -7.331289 -13.418349 -5.302777 0.002675 -0.146323 0.050067 -0.965910 -59.298495 11.623679 -118.710704 82.916558 -122.828866 6.675211 -6.939428 6.429251 0.058880 0.214986 0.032356
-81.245264 46.506778 -11.247087 175.637522 -29.773396 -2.989649 0.969979 18.696032 1.726086 0.073362 2.171302 0.198556 0.121108 3.568445 0.342617 0.747586 16.239831 1.626881 -1.249424 16.288612 -1.576892 -1.767653 -5.551311 -2.474222 1.374287 -0.776394 -1.980304 6.654780 -8.186042 -17.258942 -44.133037 -57.020158 92.212446 -1.449697 6.215184 -20.312274 -0.286069 -1.231218 3.006601 -7.511700 -4.241359 12.719893 87.376104 -82.476206 -122.836175 -4.660502 10.137616 8.187737 -2.653475 -57.409696 -5.324433 -173.086098 80.312007 -164.285253 -7.333551 -13.410907 -5.308078 0.007240 -0.154160 0.046429 -0.951523 -59.277695 11.612326 -118.666086 82.911353 -122.789910 6.681819 -6.938048 6.429041 0.045632 0.214641 0.034401
-81.245467 46.505276 -11.247043 175.637610 -29.783103 -2.983191 0.965241 18.697510 1.723204 0.074501 2.173261 0.198608 0.119558 3.567961 0.343026 0.745313 16.242883 1.626606 -1.253250 16.288518 -1.557124 -1.764799 -5.547034 -2.489767 1.379512 -0.774978 -1.984557 6.660485 -8.190311 -17.265628 -44.135219 -57.016497 92.216756 -1.457492 6.207791 -20.322304 -0.286877 -1.233167 3.001426 -7.514988 -4.233433 12.700983 87.407146 -82.487941 -122.854520 -4.653812 10.166933 8.213201 -2.642653 -57.404779 -5.335838 -173.134733 80.313044 -164.337487 -7.317183 -13.388608 -5.335460 0.007512 -0.169499 0.059550 -0.943201 -59.267325 11.604795 -118.604807 82.902583 -122.734349 6.685505 -6.937269 6.435834 0.037209 0.216508 0.030574
-81.245513 46.503876 -11.247122 175.634669 -29.795024 -2.977024 0.964174 18.703546 1.721382 0.073788 2.169962 0.199660 0.118615 3.569219 0.343159 0.745662 16.245112 1.628316 -1.257145 16.291714 -1.551741 -1.771973 -5.541099 -2.477021 1.387559 -0.775468 -1.987910 6.658641 -8.189495 -17.273221 -44.138879 -57.013637 92.221403 -1.464277 6.203840 -20.328983 -0.289623 -1.233864 2.994547 -7.515871 -4.226858 12.686617 87.447701 -82.495444 -122.885244 -4.651554 10.185050 8.220639 -2.631168 -57.395974 -5.342781 -173.160243 80.314787 -164.362666 -7.327503 -13.376014 -5.342221 0.010796 -0.176633 0.055564 -0.938128 -59.258419 11.605579 -118.616337 82.897713 -122.754743 6.678719 -6.930417 6.450163 0.037499 0.209749 0.022653
-81.245109 46.502238 -11.246480 175.628122 -29.804056 -2.972782 0.969115 18.710616 1.721543 0.071263 2.165132 0.203603 0.116123 3.566235 0.342069 0.743643 16.241231 1.632541 -1.260619 16.301695 -1.550117 -1.774137 -5.532393 -2.464985 1.396739 -0.772775 -1.988301 6.658078 -8.179730 -17.283606 -44.148665 -57.004189 92.221211 -1.461561 6.204317 -20.328310 -0.290486 -1.233267 2.984414 -7.511624 -4.214154 12.680367 87.488572 -82.496383 -122.918078 -4.651371 10.203434 8.220223 -2.624284 -57.392285 -5.334956 -173.140373 80.315320 -164.346289 -7.345638 -13.359080 -5.345021 0.018612 -0.183981 0.053187 -0.932146 -59.250169 11.605763 -118.607568 82.897607 -122.746680 6.677669 -6.926879 6.453223 0.051534 0.209764 0.019193
-81.244516 46.500827 -11.245815 175.621354 -29.814999 -2.970185 0.969522 18.709458 1.724585 0.071164 2.165286 0.203615 0.115867 3.568386 0.341472 0.746634 16.248227 1.629615 -1.265626 16.301962 -1.542268 -1.783405 -5.522695 -2.447315 1.392803 -0.780973 -1.975781 6.667188 -8.168657 -17.297827 -44.152124 -57.000701 92.217644 -1.462623 6.203079 -20.327921 -0.299293 -1.248658 2.978246 -7.507673 -4.201924 12.669206 87.474404 -82.504396 -122.886435 -4.655754 10.219609 8.208203 -2.613219 -57.385032 -5.333030 -173.112873 80.315700 -164.320611 -7.348614 -13.344313 -5.342269 0.010113 -0.181750 0.038607 -0.928271 -59.240326 11.613320 -118.593752 82.892871 -122.734064 6.669090 -6.925013 6.455810 0.051722 0.210381 0.018476
